<svg xmlns="http://www.w3.org/2000/svg" width="66.293" height="43.488" viewBox="0 0 74.56 48.91" shape-rendering="geometricPrecision" text-rendering="geometricPrecision" image-rendering="optimizeQuality" fill-rule="evenodd" clip-rule="evenodd"><path d="M22.1 26.73V15.62c0-.22.13-.42.32-.51l5.2-3.04c.27-.16.61-.07.77.2.05.09.08.19.08.28v11.11c0 .22-.13.42-.32.51l-5.2 3.04c-.27.16-.61.07-.77-.2a.596.596 0 01-.08-.28zm23.78 1.56V14.86a.56.56 0 01.86-.47l6.54 3.35c.19.1.3.3.31.5v14.31l3.98 2.2-.6-20.89L37.84 3.3v20.56l8.04 4.44zm7.07 5.18h-.05l-.02-.01-6.31-3.52-.21-.12-.04-.02-8.87-4.9-19.7 10.88 19.22 10.24 20.17-10.25-4.01-2.22zm-.48-14.9l-5.46-2.8v13.14l.07.04 5.39 2.98V18.58zm6.25 17.09a.52.52 0 01-.07.32.55.55 0 01-.26.24L37.04 47.07c-.18.09-.38.08-.54-.02L16.15 36.21l-.02-.01-.01-.01-.01-.01-.01-.01-.01-.01-.01-.01-.01-.01-.01-.01-.01-.01-.01-.01-.01-.01-.01-.01-.01-.01-.01-.01-.01-.01-.01-.01-.01-.01-.01-.01-.01-.01-.01-.01-.01-.01-.01-.01-.01-.01-.01-.01-.01-.01-.01-.01-.01-.02V35.74l.63-22.16c-.01-.21.1-.41.29-.51L37.01 1.9H37.19l20.22 11.17c.19.11.3.31.29.51l.63 22.12zm-22-11.81V3.29L17.59 13.85l-.6 20.89 19.73-10.89zm-13.5-7.91v9.82l4.12-2.41v-9.82l-4.12 2.41z" fill="#fff" fill-rule="nonzero"/><path fill="none" d="M0 0h74.56v48.91H0z"/></svg>