<svg xmlns="http://www.w3.org/2000/svg" width="66.293" height="43.488" viewBox="0 0 74.56 48.91" shape-rendering="geometricPrecision" text-rendering="geometricPrecision" image-rendering="optimizeQuality" fill-rule="evenodd" clip-rule="evenodd"><path d="M45.88 27.73V14.3a.56.56 0 01.86-.47l6.54 3.35c.19.1.3.3.31.5v14.31l3.98 2.2-.6-20.89L37.84 2.74V23.3l8.04 4.44zm-36.3 4.13c1 .48 1.85 1.22 2.47 2.13a6.15 6.15 0 011.06 3.46c0 1.71-.69 3.25-1.81 4.37a6.168 6.168 0 01-4.37 1.81 6.15 6.15 0 01-4.37-1.81 6.168 6.168 0 01-1.81-4.37c0-1.28.39-2.47 1.06-3.46.61-.91 1.47-1.65 2.47-2.13v-4.54H2.31a.56.56 0 110-1.12h1.97v-2.25H2.31a.56.56 0 110-1.12h1.97v-2.25H2.31a.56.56 0 110-1.12h1.97v-2.25H2.31a.56.56 0 110-1.12h1.97v-2.25H2.31a.56.56 0 110-1.12h1.97V9.47c0-.5.2-.95.53-1.28.33-.33.78-.53 1.28-.53h1.72c.5 0 .95.2 1.28.53l.03.04c.31.32.49.76.49 1.24v22.42zm1.54 2.76a5.059 5.059 0 00-2.31-1.87.556.556 0 01-.35-.52V9.45c0-.18-.07-.34-.18-.46l-.02-.02a.68.68 0 00-.48-.2H6.06a.68.68 0 00-.48.2.64.64 0 00-.2.48V32.2c.01.23-.12.46-.35.55-.94.38-1.74 1.04-2.31 1.87a5.074 5.074 0 00.62 6.41 5.074 5.074 0 007.16 0c.92-.92 1.48-2.18 1.48-3.58 0-1.05-.32-2.02-.86-2.83zm41.83-1.7h-.05l-.02-.01-6.31-3.52-.21-.12-.04-.02-8.87-4.9-19.7 10.88 19.22 10.24 20.17-10.25L53.13 33zm-.48-14.9l-5.46-2.8v13.14l.07.04 5.39 2.98V18.03zm6.25 17.09a.52.52 0 01-.07.32.55.55 0 01-.26.24L37.04 46.52c-.18.09-.38.08-.54-.02L16.15 35.66l-.02-.01-.01-.01-.01-.01-.01-.01-.01-.01-.01-.01-.01-.01-.01-.01-.01-.01-.01-.01-.01-.01-.01-.01-.01-.01-.01-.01-.01-.01-.01-.01-.01-.01-.01-.01-.01-.01-.01-.01-.01-.01-.01-.01-.01-.01-.01-.01-.01-.01-.01-.01-.01-.02V35.19l.63-22.16c-.01-.21.1-.41.29-.51L37.01 1.35H37.19l20.22 11.17c.19.11.3.31.29.51l.63 22.12zm-22-11.81V2.74L17.59 13.3l-.6 20.89L36.72 23.3z" fill="#fff" fill-rule="nonzero"/><path fill="none" d="M0 0h74.56v48.91H0z"/></svg>