<svg xmlns="http://www.w3.org/2000/svg" width="66.293" height="43.488" viewBox="0 0 74.56 48.91" shape-rendering="geometricPrecision" text-rendering="geometricPrecision" image-rendering="optimizeQuality" fill-rule="evenodd" clip-rule="evenodd"><path d="M19.87 9.6l8.57 4.96 2.9-1.7.29-10.26-11.76 7zm12.6 3.27l10.99 6.47 9.03-5.37L32.76 2.55l-.29 10.32zM19.3 10.56l-.27 9.51 8.3-4.86-8.03-4.65zm-.32 11.51l-.2 7.17 6-3.49-5.8-3.68zm-.26 9.18l-.07 2.63 2.19-1.3-2.12-1.32zm3.21.68l6.49-3.86-2.57-1.63-6.59 3.83 2.67 1.67zm7.58-4.51l1.47-.87.09-3.14-4.11 2.39 2.56 1.62zm1.59-5.33l.13-4.63-2.77-1.61-8.93 5.23 6.35 4.03 5.22-3.03zm.16-5.9l.06-2.01-1.75 1.03 1.69.98zM17.5 34.87l.13-4.49c-.02-.1-.02-.2.01-.29l.25-9.02v-.02l.32-11.42V9.28l.01-.01v-.01l.01-.01.01-.01.01-.01.01-.01.01-.01.01-.01.01-.01.01-.01h.02l.01-.01h.02l.01-.01.01-.01h.01l.01-.01.01-.01.01-.01 13.46-8.01.01-.01h.02l.02-.01h.22l.02.01.02.01.05.02.02.01.01.01h.03l21.36 12.37c.09.05.16.12.21.21.06.1.09.22.08.33l-.33 11.74v.07l-.28 9.87v.08l-.1 3.45c.01.2-.09.39-.28.5l-13.46 8.01a.61.61 0 01-.3.08.56.56 0 01-.54-.58l.09-3.35-17.05-10.65-3.57 2.12a.61.61 0 01-.3.08.56.56 0 01-.54-.58zm14.94-20.71l-.07 2.67 7.77 4.5L42.37 20l-9.92-5.85zm-.11 3.95l-.11 4.01 7.23 4.51.12-4.32-7.24-4.19zm-.15 5.31l-.1 3.44c.01.2-.09.39-.28.5l-1.24.74 8.69 5.51.16-5.69-7.23-4.51zm-2.7 5.33L23 32.61l16 9.99.22-7.67-9.73-6.18zm11.21-6.44l-.14 5 4.8 2.99 6.86-4.49-8.74-5.15-2.77 1.65zm-.18 6.3l-.14 4.95 3.94-2.58-3.8-2.37zm-.18 6.32l-.22 7.66 11.78-6.88-6.54-4.08-5.03 3.29zm-.25 8.99l-.07 2.34 12.32-7.33.06-2.2-12.32 7.2zm12.37-9.19l.22-7.89-6.28 4.12 6.06 3.78zm.28-9.92l.28-9.84-8.45 5.02 8.17 4.82z" fill="#fff" fill-rule="nonzero"/><path fill="none" d="M0 0h74.56v48.91H0z"/></svg>