<svg xmlns="http://www.w3.org/2000/svg" width="66.293" height="43.488" viewBox="0 0 74.56 48.91" shape-rendering="geometricPrecision" text-rendering="geometricPrecision" image-rendering="optimizeQuality" fill-rule="evenodd" clip-rule="evenodd"><path d="M9.57 30.74c1 .48 1.85 1.22 2.47 2.13a6.15 6.15 0 011.06 3.46c0 1.71-.69 3.25-1.81 4.37a6.168 6.168 0 01-4.37 1.81 6.15 6.15 0 01-4.37-1.81 6.168 6.168 0 01-1.81-4.37c0-1.28.39-2.47 1.06-3.46.61-.91 1.47-1.65 2.47-2.13V26.2H2.3a.56.56 0 110-1.12h1.97v-2.25H2.3a.56.56 0 110-1.12h1.97v-2.25H2.3a.56.56 0 110-1.12h1.97v-2.25H2.3a.56.56 0 110-1.12h1.97v-2.25H2.3a.56.56 0 110-1.12h1.97V8.35c0-.5.2-.95.53-1.28.33-.33.78-.53 1.28-.53H7.8c.5 0 .95.2 1.28.53l.03.04c.31.32.49.76.49 1.24v22.42zm29.99-8.01l-.02 23.56 11.66-6.93.67-23.95-12.31 7.32zm-4.53 5.84l-.41-.71h-1.83l.8-1.37-.41-.71h-.83l-1.21 2.08h-2.71l1.36-2.33h2.43l.41-.71-.41-.71h-1.6l.92-1.57-.42-.71h-.83l-.92 1.57-.8-1.37h-.83l-.41.71 1.21 2.08-1.36 2.33-1.36-2.33 1.21-2.08-.41-.71h-.83l-.8 1.37-.92-1.57h-.83l-.41.71.92 1.57h-1.6l-.41.71.41.71h2.43l1.36 2.33h-2.72l-1.21-2.08h-.83l-.41.71.8 1.37h-1.83l-.41.71.41.71h1.83l-.8 1.37.41.71h.83l1.21-2.08h2.72l-1.36 2.32h-2.43l-.41.71.41.71h1.6l-.92 1.57.41.71h.83l.92-1.57.8 1.37h.83l.41-.71-1.22-2.08 1.36-2.33 1.36 2.33-1.21 2.08.41.71h.83l.8-1.37.92 1.57h.83l.41-.71-.92-1.57h1.6l.41-.71-.41-.71h-2.43l-1.36-2.33h2.72l1.21 2.08h.83l.41-.71-.8-1.37h1.84l.41-.71zm3.68 19.2L15.79 35.05a.566.566 0 01-.29-.47l-.69-24.41v-.04c0-.04.01-.07.02-.11v-.01l.01-.03v-.04c.01-.03.02-.05.03-.07V9.76l.01-.01.01-.01.01-.01.01-.01.01-.01.01-.01.01-.01.01-.01.01-.01.01-.01c.02-.02.04-.03.07-.05l13.37-8.53c.17-.13.41-.16.61-.05l23.66 12.83c.09.05.16.12.22.21.06.1.09.22.08.33l-.71 25.21c.01.2-.09.39-.28.5l-12.77 7.6a.3.3 0 01-.08.04h-.07zm-.29-1.44V23.37L15.95 11.11l.65 23.12 21.81 12.1zM16.49 10.1l22.49 11.67 12.34-7.34-22.5-12.2-12.34 7.87zm-5.38 23.4a5.059 5.059 0 00-2.31-1.87.556.556 0 01-.35-.52V8.33c0-.18-.07-.34-.18-.46l-.02-.02a.68.68 0 00-.48-.2H6.05a.68.68 0 00-.48.2.64.64 0 00-.2.48v22.75c.01.23-.12.46-.35.55-.94.38-1.74 1.04-2.31 1.87a5.074 5.074 0 00.62 6.41 5.074 5.074 0 007.16 0c.92-.92 1.48-2.18 1.48-3.58 0-1.05-.32-2.02-.86-2.83z" fill="#fff" fill-rule="nonzero"/><path fill="none" d="M0 0h74.56v48.91H0z"/></svg>