<svg xmlns="http://www.w3.org/2000/svg" width="48" height="44" viewBox="0 0 38.78 35.55" shape-rendering="geometricPrecision" text-rendering="geometricPrecision" image-rendering="optimizeQuality" fill-rule="evenodd" clip-rule="evenodd"><path d="M1.62 33.94h35.55V1.62H1.62v32.32zm28.28-5.66h1.62v-1.62H29.9v1.62zm0-6.46h1.62V20.2H29.9v1.62zm0-6.46h1.62v-1.62H29.9v1.62zM18.59 28.29h1.62v-1.62h-1.62v1.62zm0-6.46h1.62v-1.62h-1.62v1.62zM7.28 28.29H8.9v-1.62H7.28v1.62zm0-6.46H8.9v-1.62H7.28v1.62zm0-6.46H8.9v-1.62H7.28v1.62zm0-6.46h24.24V7.29H7.28v1.62zm11.31 6.46h1.62v-1.62h-1.62v1.62zm19.39 20.2H.81c-.45 0-.81-.36-.81-.81V.82C0 .37.36.01.81.01h37.17c.45 0 .81.36.81.81v33.94c0 .45-.36.81-.81.81z" fill="#fff" fill-rule="nonzero"/></svg>