<svg xmlns="http://www.w3.org/2000/svg" width="44.469" height="46.337" viewBox="0 0 33.2 34.6" shape-rendering="geometricPrecision" text-rendering="geometricPrecision" image-rendering="optimizeQuality" fill-rule="evenodd" clip-rule="evenodd"><path d="M16.79 18.36l-.01 9.18v6.06l14.83-8.2.82-15.44-15.64 8.41zm5.9.82v7.1l2.1-1.17c1.07-.6 1.82-1.55 2.25-2.85.23-.71.35-1.47.35-2.27 0-1.11-.17-1.86-.52-2.26-.35-.4-1.04-.31-2.07.27l-2.1 1.17zm2.48-3.28c.68-.37 1.24-.6 1.68-.71.76-.18 1.38-.06 1.86.34.38.33.64.77.77 1.33.14.55.21 1.11.21 1.68 0 1.45-.29 2.84-.87 4.16-.79 1.8-2 3.15-3.65 4.07l-4.69 2.62V18.51l4.69-2.62zM6.76 22.74c0 .43.07.82.21 1.18.25.65.72 1.17 1.39 1.53.41.22.77.28 1.08.16.31-.11.46-.44.46-.97 0-.7-.29-1.33-.86-1.87-.33-.31-.84-.65-1.54-1.03v-1.51c.69.36 1.16.55 1.43.58.47.05.7-.25.7-.88 0-.41-.12-.81-.36-1.19-.24-.38-.57-.69-1.01-.93-.5-.27-.86-.31-1.1-.12-.23.19-.35.55-.34 1.08l-1.97-1.06c.02-.52.11-.98.27-1.37.17-.33.44-.56.81-.72.27-.1.6-.12.98-.04.38.07.84.26 1.39.55 1.03.55 1.85 1.27 2.48 2.13.63.87.94 1.75.94 2.64 0 .63-.19 1.06-.56 1.29-.24.14-.48.2-.74.16.19.1.47.42.83.94.54.79.81 1.61.81 2.48 0 .9-.32 1.53-.94 1.88-.63.35-1.56.19-2.79-.48-1.52-.82-2.57-1.88-3.16-3.19-.31-.69-.48-1.48-.52-2.35l2.07 1.12zm9.46 11.81L.67 25.95c-.13-.07-.2-.2-.19-.34L.01 9.13V9.02l.03-.03.01-.01h.07l.01-.01L16.16.24c.11-.06.24-.06.36 0l16.4 8.93h.01c.04.03.08.07.11.12v.02l.01.01v.01l.01.01V9.5l-.86 16.29c0 .13-.07.26-.19.32l-15.56 8.61-.06.03h-.01zM.76 9.76l.45 15.63 14.82 8.2.01-15.24L.76 9.75zm.38-.64l15.28 8.6 15.63-8.41L16.41.8 1.14 9.12z" fill="#fff" fill-rule="nonzero"/></svg>