<svg xmlns="http://www.w3.org/2000/svg" width="35" height="35" viewBox="0 0 38.83 35.59" shape-rendering="geometricPrecision" text-rendering="geometricPrecision" image-rendering="optimizeQuality" fill-rule="evenodd" clip-rule="evenodd"><path d="M.81 0h27.05c.25 0 .47.11.62.29l9.93 10.3c.16.17.23.38.22.59-.01 10.17.2 23.54.2 23.58.01.44-.35.81-.79.82H.81c-.45 0-.81-.36-.81-.81V.79c0-.45.36-.81.81-.81zM26.7 33.98V17.8H12.14v16.18H26.7zm-16.18 0V16.99c0-.45.36-.81.81-.81h16.18c.45 0 .81.36.81.81v16.99h8.89c-.04-3.03-.19-13.84-.18-22.5l-8.7-9.03v8.88c0 .45-.36.81-.81.81H11.34c-.45 0-.81-.36-.81-.81V1.62h-8.9v32.36h8.9zm1.62-23.46H26.7v-8.9H12.14v8.9z" fill="#fff" fill-rule="nonzero"/></svg>