<svg xmlns="http://www.w3.org/2000/svg" width="48.001" height="46.997" viewBox="0 0 38.88 38.07" shape-rendering="geometricPrecision" text-rendering="geometricPrecision" image-rendering="optimizeQuality" fill-rule="evenodd" clip-rule="evenodd"><path d="M19.04 0h.81c5.26 0 10.02 2.13 13.46 5.58 3.44 3.44 5.57 8.2 5.57 13.46 0 0 .01.18 0 .19-.05 5.18-2.17 9.87-5.57 13.27-3.44 3.44-8.2 5.57-13.46 5.57h-.81c-5.26 0-10.02-2.13-13.46-5.57A19.038 19.038 0 01.23 22l-.23.45v-3.42C0 13.77 2.13 9.01 5.58 5.57A18.96 18.96 0 0119.04-.01zm-.97 25.82h2.52v2.63h-2.52v-2.63zm-4.26-10.14c0-1.82.51-3.29 1.54-4.4 1.03-1.11 2.45-1.66 4.24-1.66 1.66 0 2.99.47 3.99 1.42s1.5 2.16 1.5 3.64c0 .9-.18 1.62-.55 2.18-.37.56-1.11 1.38-2.22 2.46-.81.78-1.34 1.45-1.58 1.99s-.36 1.35-.36 2.41h-2.26c0-1.21.14-2.18.43-2.92.29-.74.92-1.59 1.88-2.54l1.02-1c.3-.29.55-.59.73-.9.34-.55.51-1.12.51-1.71 0-.83-.25-1.55-.74-2.15-.49-.61-1.31-.91-2.45-.91-1.41 0-2.38.52-2.92 1.57-.31.58-.48 1.42-.52 2.52h-2.26zm6.04-14.06h-.81c-4.81 0-9.16 1.95-12.31 5.1a17.339 17.339 0 00-5.1 11.99v.33c0 4.81 1.95 9.16 5.1 12.31 3.15 3.15 7.51 5.11 12.31 5.11h.81c4.81 0 9.16-1.95 12.31-5.1a17.37 17.37 0 005.1-12.31v-.19c-.05-4.73-1.99-9.01-5.1-12.13a17.37 17.37 0 00-12.31-5.1z" fill="#fff" fill-rule="nonzero"/></svg>